<svg width="562" height="700" viewBox="0 0 562 700" fill="none" xmlns="http://www.w3.org/2000/svg">
<g clip-path="url(#clip0)">
<rect width="511" height="715.447" transform="matrix(-1 0 0 1 509 -0.980621)" fill="url(#paint0_linear)"/>
<rect width="62.1022" height="62.1022" transform="matrix(-0.720195 -0.693772 -0.720195 0.693772 61.6084 304.785)" fill="black" fill-opacity="0.02"/>
<path d="M-2.2131 -0.854568C12.5752 -0.981909 27.2448 1.69791 40.958 7.03187C54.6712 12.3658 67.1595 20.2495 77.7099 30.2327C88.2603 40.2159 96.6661 52.1032 102.447 65.2158C108.229 78.3284 111.273 92.4096 111.405 106.655C111.537 120.901 108.755 135.032 103.218 148.243C97.6808 161.453 89.4969 173.483 79.1334 183.646C68.77 193.809 56.43 201.907 42.8179 207.476C29.2059 213.045 14.5884 215.977 -0.199882 216.105L-1.20649 107.625L-2.2131 -0.854568Z" fill="url(#paint1_linear)"/>
<path d="M396.122 714.576C396.122 700.33 399.035 686.223 404.694 673.061C410.354 659.899 418.649 647.94 429.106 637.867C439.563 627.793 451.978 619.802 465.641 614.35C479.304 608.898 493.948 606.092 508.737 606.092L508.737 714.576L396.122 714.576Z" fill="url(#paint2_linear)"/>
</g>
<g clip-path="url(#clip1)">
<path d="M463.605 472.523C458.244 467.993 454.987 460.837 455.841 453.87C456.695 446.903 461.985 440.499 468.846 439.02C475.707 437.54 483.528 441.635 485.612 448.338C486.759 435.416 488.081 421.953 494.951 410.949C501.171 400.985 511.945 393.855 523.622 392.58C535.299 391.304 547.593 396.122 554.876 405.338C562.158 414.554 563.941 427.953 558.841 438.534C555.084 446.329 548.161 452.13 540.909 456.85C517.472 471.971 489.363 478.12 461.753 474.166L463.605 472.523Z" fill="#F8B24F"/>
<path d="M543.329 396.389C533.694 404.236 524.855 413.013 516.94 422.593C504.552 437.533 494.528 454.284 487.217 472.262C486.682 473.574 488.812 474.145 489.341 472.848C501.303 443.63 520.401 417.877 544.886 397.946C545.986 397.051 544.419 395.501 543.329 396.389Z" fill="white"/>
<path d="M277.802 471.292C285.166 465.07 289.639 455.241 288.466 445.672C287.293 436.104 280.028 427.307 270.604 425.275C261.18 423.243 250.438 428.868 247.576 438.074C246 420.325 244.185 401.834 234.749 386.72C226.205 373.034 211.407 363.242 195.368 361.49C179.33 359.738 162.444 366.355 152.442 379.013C142.439 391.672 139.99 410.075 146.996 424.609C152.156 435.315 161.664 443.282 171.626 449.765C203.407 470.445 242.832 479.07 280.345 473.549" fill="#F8B24F"/>
<path d="M168.302 366.721C181.535 377.5 193.675 389.556 204.547 402.713C215.42 415.857 224.993 430.024 233.131 445.017C237.679 453.427 241.766 462.079 245.371 470.934C246.106 472.736 243.181 473.52 242.454 471.738C236.068 456.126 228.167 441.178 218.865 427.107C209.608 413.087 199.013 399.998 187.228 388.024C180.563 381.255 173.53 374.857 166.163 368.86C164.652 367.631 166.804 365.502 168.302 366.721L168.302 366.721Z" fill="white"/>
<path d="M443.586 474.806H267.903V294.551C267.903 256.2 299.103 225 337.454 225H374.035C412.385 225 443.586 256.2 443.586 294.551V474.806Z" fill="#6E5EA9"/>
<path d="M407.005 474.806H267.903V294.551C267.865 279.856 272.518 265.532 281.185 253.665C281.505 253.23 281.824 252.8 282.152 252.375C286.345 246.876 291.334 242.034 296.955 238.007C297.272 237.776 297.591 237.549 297.915 237.322C302.618 234.067 307.706 231.406 313.063 229.4C313.381 229.279 313.705 229.159 314.029 229.043C318.873 227.314 323.895 226.13 329.002 225.512C329.319 225.469 329.644 225.435 329.969 225.401C334.945 224.869 339.964 224.869 344.94 225.401C345.264 225.435 345.589 225.469 345.91 225.512C351.015 226.13 356.036 227.314 360.879 229.043C361.203 229.159 361.527 229.279 361.846 229.4C367.137 231.381 372.165 234.002 376.818 237.205C377.141 237.427 377.465 237.654 377.784 237.881C380.935 240.131 383.894 242.636 386.632 245.373C388.828 247.568 390.874 249.908 392.757 252.376C393.084 252.8 393.403 253.23 393.722 253.665C402.39 265.532 407.043 279.856 407.005 294.551V474.806Z" fill="#8264F3"/>
<path d="M395.694 394.185C399.947 394.185 403.395 390.737 403.395 386.484C403.395 382.23 399.947 378.782 395.694 378.782C391.441 378.782 387.993 382.23 387.993 386.484C387.993 390.737 391.441 394.185 395.694 394.185Z" fill="#F8B24F"/>
<path d="M429.193 469.407H423.292L420.485 446.646L429.194 446.647L429.193 469.407Z" fill="#FFB8B8"/>
<path d="M419.077 467.721H430.458V474.886H411.912C411.912 473.945 412.097 473.014 412.457 472.144C412.818 471.275 413.345 470.485 414.011 469.82C414.676 469.154 415.466 468.626 416.335 468.266C417.205 467.906 418.136 467.721 419.077 467.721V467.721Z" fill="#2F2E41"/>
<path d="M458.554 469.407H452.653L449.846 446.646L458.555 446.647L458.554 469.407Z" fill="#FFB8B8"/>
<path d="M448.438 467.721H459.818V474.886H441.273C441.273 473.945 441.458 473.014 441.818 472.144C442.178 471.275 442.706 470.485 443.371 469.82C444.037 469.154 444.827 468.626 445.696 468.266C446.565 467.906 447.497 467.721 448.438 467.721V467.721Z" fill="#2F2E41"/>
<path d="M399.592 388.009C399.167 387.384 398.885 386.673 398.765 385.926C398.645 385.18 398.69 384.416 398.897 383.689C399.104 382.962 399.468 382.29 399.963 381.718C400.458 381.147 401.072 380.692 401.763 380.383L421.822 325.096L431.693 330.482L408.789 383.317C409.23 384.511 409.217 385.825 408.754 387.011C408.29 388.196 407.408 389.17 406.274 389.748C405.14 390.327 403.834 390.469 402.602 390.149C401.371 389.828 400.299 389.067 399.592 388.009V388.009Z" fill="#FFB8B8"/>
<path d="M455.54 398.398C454.884 398.022 454.319 397.507 453.884 396.889C453.448 396.271 453.154 395.565 453.021 394.82C452.889 394.076 452.921 393.312 453.115 392.582C453.31 391.851 453.662 391.172 454.147 390.593L447.933 332.107L459.166 332.621L461.749 390.148C462.668 391.028 463.233 392.215 463.336 393.483C463.44 394.752 463.074 396.014 462.308 397.031C461.543 398.048 460.431 398.749 459.184 399.001C457.936 399.253 456.64 399.038 455.54 398.398V398.398Z" fill="#FFB8B8"/>
<path d="M437.62 314.855C444.149 314.855 449.442 309.562 449.442 303.033C449.442 296.504 444.149 291.211 437.62 291.211C431.091 291.211 425.798 296.504 425.798 303.033C425.798 309.562 431.091 314.855 437.62 314.855Z" fill="#FFB8B8"/>
<path d="M455.464 385.097H419.824L419.867 384.819C419.931 384.405 426.219 343.214 421.581 329.739C421.116 328.415 421.157 326.965 421.696 325.669C422.235 324.373 423.235 323.323 424.503 322.719H424.503C431.131 319.598 443.855 315.754 454.595 325.082C456.175 326.478 457.409 328.221 458.2 330.176C458.99 332.13 459.315 334.242 459.148 336.343L455.464 385.097Z" fill="#F8B24F"/>
<path d="M426.669 349.302L410.624 346.046L418.145 328.223C418.595 326.497 419.711 325.02 421.249 324.115C422.787 323.211 424.621 322.954 426.348 323.4C428.075 323.846 429.555 324.958 430.463 326.494C431.371 328.03 431.633 329.863 431.191 331.591L426.669 349.302Z" fill="#F8B24F"/>
<path d="M447.22 355.346L446.255 333.233C445.523 329.076 447.903 325.147 451.563 324.505C455.223 323.865 458.798 326.748 459.533 330.935L463.158 351.597L447.22 355.346Z" fill="#F8B24F"/>
<path d="M454.279 382.449C460.013 404.29 460.639 432.059 459.092 462.349L451.391 461.386L437.432 403.628L429.731 462.349L421.067 461.868C418.479 430.086 415.959 402.802 420.105 384.856L454.279 382.449Z" fill="#2F2E41"/>
<path d="M445.409 312.169C443.204 314.519 439.108 313.257 438.821 310.048C438.798 309.799 438.8 309.548 438.826 309.299C438.974 307.878 439.795 306.587 439.599 305.086C439.554 304.712 439.415 304.356 439.194 304.052C437.437 301.698 433.311 305.104 431.653 302.974C430.636 301.668 431.831 299.611 431.051 298.151C430.021 296.224 426.97 297.174 425.056 296.119C422.928 294.945 423.055 291.679 424.456 289.692C426.165 287.269 429.162 285.976 432.121 285.79C435.08 285.604 438.018 286.404 440.781 287.48C443.919 288.704 447.032 290.394 448.964 293.154C451.312 296.51 451.538 301.023 450.364 304.947C449.649 307.335 447.21 310.251 445.409 312.169Z" fill="#2F2E41"/>
<path d="M547.301 475.116H191.944C191.793 475.115 191.647 475.055 191.54 474.947C191.433 474.84 191.373 474.694 191.373 474.543C191.373 474.391 191.433 474.246 191.54 474.138C191.647 474.031 191.793 473.97 191.944 473.97H547.301C547.453 473.97 547.598 474.031 547.706 474.138C547.813 474.246 547.873 474.391 547.873 474.543C547.873 474.694 547.813 474.84 547.706 474.947C547.598 475.055 547.453 475.115 547.301 475.116V475.116Z" fill="#3F3D56"/>
<path d="M368.74 422.583H306.168C305.344 422.587 304.552 422.265 303.965 421.686C303.379 421.107 303.046 420.319 303.039 419.495V279.83C303.046 279.006 303.379 278.218 303.965 277.639C304.552 277.06 305.344 276.738 306.168 276.742H368.74C369.564 276.738 370.356 277.06 370.943 277.639C371.529 278.218 371.862 279.006 371.869 279.83V419.495C371.862 420.319 371.529 421.107 370.943 421.686C370.356 422.265 369.564 422.587 368.74 422.583V422.583Z" fill="white"/>
<path d="M371.869 321.933H303.039V322.896H371.869V321.933Z" fill="#CCCCCC"/>
<path d="M372.109 376.857H303.28V377.82H372.109V376.857Z" fill="#CCCCCC"/>
<path d="M325.662 276.742H324.699V423.064H325.662V276.742Z" fill="#CCCCCC"/>
<path d="M349.728 276.742H348.765V423.064H349.728V276.742Z" fill="#CCCCCC"/>
</g>
<defs>
<linearGradient id="paint0_linear" x1="503.665" y1="9.93675" x2="16.7507" y2="726.824" gradientUnits="userSpaceOnUse">
<stop stop-color="#675AF0"/>
<stop offset="1" stop-color="#ECC8F9"/>
</linearGradient>
<linearGradient id="paint1_linear" x1="64.3969" y1="286.682" x2="-70.5868" y2="-103.934" gradientUnits="userSpaceOnUse">
<stop stop-color="#675AF0"/>
<stop offset="1" stop-color="#DC83FC"/>
</linearGradient>
<linearGradient id="paint2_linear" x1="685.793" y1="798.03" x2="306.621" y2="607.937" gradientUnits="userSpaceOnUse">
<stop stop-color="#675AF0"/>
<stop offset="1" stop-color="#DC83FC"/>
</linearGradient>
<clipPath id="clip0">
<rect width="509" height="700" fill="white"/>
</clipPath>
<clipPath id="clip1">
<rect width="418.75" height="250.354" fill="white" transform="translate(143 225)"/>
</clipPath>
</defs>
</svg>
