<svg width="120" height="36" viewBox="0 0 120 36" fill="none" xmlns="http://www.w3.org/2000/svg">
<path d="M16.52 14.12C16.056 13.144 15.384 12.392 14.504 11.864C13.624 11.32 12.6 11.048 11.432 11.048C10.264 11.048 9.208 11.32 8.264 11.864C7.336 12.392 6.6 13.16 6.056 14.168C5.528 15.16 5.264 16.312 5.264 17.624C5.264 18.936 5.528 20.088 6.056 21.08C6.6 22.072 7.336 22.84 8.264 23.384C9.208 23.912 10.264 24.176 11.432 24.176C13.064 24.176 14.408 23.688 15.464 22.712C16.52 21.736 17.136 20.416 17.312 18.752H10.64V16.976H19.64V18.656C19.512 20.032 19.08 21.296 18.344 22.448C17.608 23.584 16.64 24.488 15.44 25.16C14.24 25.816 12.904 26.144 11.432 26.144C9.88 26.144 8.464 25.784 7.184 25.064C5.904 24.328 4.888 23.312 4.136 22.016C3.4 20.72 3.032 19.256 3.032 17.624C3.032 15.992 3.4 14.528 4.136 13.232C4.888 11.92 5.904 10.904 7.184 10.184C8.464 9.448 9.88 9.08 11.432 9.08C13.208 9.08 14.776 9.52 16.136 10.4C17.512 11.28 18.512 12.52 19.136 14.12H16.52ZM21.7117 19.376C21.7117 18.032 21.9837 16.856 22.5277 15.848C23.0717 14.824 23.8157 14.032 24.7597 13.472C25.7197 12.912 26.7837 12.632 27.9517 12.632C29.1037 12.632 30.1037 12.88 30.9517 13.376C31.7997 13.872 32.4317 14.496 32.8477 15.248V12.848H35.0557V26H32.8477V23.552C32.4157 24.32 31.7677 24.96 30.9037 25.472C30.0557 25.968 29.0637 26.216 27.9277 26.216C26.7597 26.216 25.7037 25.928 24.7597 25.352C23.8157 24.776 23.0717 23.968 22.5277 22.928C21.9837 21.888 21.7117 20.704 21.7117 19.376ZM32.8477 19.4C32.8477 18.408 32.6477 17.544 32.2477 16.808C31.8477 16.072 31.3037 15.512 30.6157 15.128C29.9437 14.728 29.1997 14.528 28.3837 14.528C27.5677 14.528 26.8237 14.72 26.1517 15.104C25.4797 15.488 24.9437 16.048 24.5437 16.784C24.1437 17.52 23.9437 18.384 23.9437 19.376C23.9437 20.384 24.1437 21.264 24.5437 22.016C24.9437 22.752 25.4797 23.32 26.1517 23.72C26.8237 24.104 27.5677 24.296 28.3837 24.296C29.1997 24.296 29.9437 24.104 30.6157 23.72C31.3037 23.32 31.8477 22.752 32.2477 22.016C32.6477 21.264 32.8477 20.392 32.8477 19.4ZM54.5624 12.608C55.5864 12.608 56.4984 12.824 57.2984 13.256C58.0984 13.672 58.7304 14.304 59.1944 15.152C59.6584 16 59.8904 17.032 59.8904 18.248V26H57.7304V18.56C57.7304 17.248 57.4024 16.248 56.7464 15.56C56.1064 14.856 55.2344 14.504 54.1304 14.504C52.9944 14.504 52.0904 14.872 51.4184 15.608C50.7464 16.328 50.4104 17.376 50.4104 18.752V26H48.2504V18.56C48.2504 17.248 47.9224 16.248 47.2664 15.56C46.6264 14.856 45.7544 14.504 44.6504 14.504C43.5144 14.504 42.6104 14.872 41.9384 15.608C41.2664 16.328 40.9304 17.376 40.9304 18.752V26H38.7464V12.848H40.9304V14.744C41.3624 14.056 41.9384 13.528 42.6584 13.16C43.3944 12.792 44.2024 12.608 45.0824 12.608C46.1864 12.608 47.1624 12.856 48.0104 13.352C48.8584 13.848 49.4904 14.576 49.9064 15.536C50.2744 14.608 50.8824 13.888 51.7304 13.376C52.5784 12.864 53.5224 12.608 54.5624 12.608ZM94.8028 26.216C93.5708 26.216 92.4508 25.936 91.4428 25.376C90.4508 24.816 89.6668 24.024 89.0908 23C88.5308 21.96 88.2508 20.76 88.2508 19.4C88.2508 18.056 88.5388 16.872 89.1148 15.848C89.7068 14.808 90.5068 14.016 91.5148 13.472C92.5228 12.912 93.6508 12.632 94.8988 12.632C96.1468 12.632 97.2748 12.912 98.2828 13.472C99.2908 14.016 100.083 14.8 100.659 15.824C101.251 16.848 101.547 18.04 101.547 19.4C101.547 20.76 101.243 21.96 100.635 23C100.043 24.024 99.2348 24.816 98.2108 25.376C97.1868 25.936 96.0508 26.216 94.8028 26.216ZM94.8028 24.296C95.5868 24.296 96.3228 24.112 97.0108 23.744C97.6988 23.376 98.2508 22.824 98.6668 22.088C99.0988 21.352 99.3148 20.456 99.3148 19.4C99.3148 18.344 99.1068 17.448 98.6908 16.712C98.2748 15.976 97.7308 15.432 97.0588 15.08C96.3868 14.712 95.6588 14.528 94.8748 14.528C94.0748 14.528 93.3388 14.712 92.6668 15.08C92.0108 15.432 91.4828 15.976 91.0828 16.712C90.6828 17.448 90.4828 18.344 90.4828 19.4C90.4828 20.472 90.6748 21.376 91.0588 22.112C91.4588 22.848 91.9868 23.4 92.6428 23.768C93.2988 24.12 94.0188 24.296 94.8028 24.296ZM109.314 23.984L113.394 12.848H115.722L110.562 26H108.018L102.858 12.848H105.21L109.314 23.984Z" fill="#675AF0"/>
<path d="M83.9412 22.0159L83.1596 17.7642C82.9084 15.8208 81.2452 14.3575 79.2842 14.3575H69.7156C67.7546 14.3575 66.0915 15.8208 65.8402 17.7643L65.0586 22.0159C64.67 24.1299 66.2636 26.1041 68.4012 26.1899C70.438 26.2714 72.0744 24.6086 72.0808 22.6244C72.0808 22.6173 71.851 22.6198 76.9191 22.6198C76.9191 24.5971 78.5556 26.2719 80.5987 26.1899C82.7266 26.1044 84.3318 24.14 83.9412 22.0159V22.0159ZM81.8456 24.6365C80.9281 25.2826 79.6566 25.2277 78.798 24.4029C78.3134 23.9374 78.0356 23.285 78.0356 22.6129C78.0356 22.0131 77.5411 21.5033 76.919 21.5033H72.0808C71.4588 21.5033 70.9643 22.013 70.9643 22.6129C70.9643 23.9747 69.8458 25.1303 68.4459 25.0743C67.166 25.0229 66.1547 23.9754 66.1145 22.7162C66.1044 22.401 66.0932 22.5631 66.9411 17.9509C66.9431 17.9404 66.9447 17.9299 66.946 17.9192C67.1202 16.5252 68.3109 15.474 69.7156 15.474H79.2842C80.6888 15.474 81.8795 16.5252 82.0537 17.9192C82.0568 17.9438 82.0015 17.6403 82.8431 22.2179C83.0213 23.186 82.5868 24.1145 81.8456 24.6365Z" fill="#AC73F7" stroke="#AC73F7" stroke-width="0.4"/>
<path d="M71.8203 18.2281H70.8898V17.2977C70.8898 16.9894 70.6399 16.7394 70.3316 16.7394C70.0233 16.7394 69.7733 16.9894 69.7733 17.2977V18.2281H68.8429C68.5346 18.2281 68.2846 18.4781 68.2846 18.7864C68.2846 19.0947 68.5346 19.3446 68.8429 19.3446H69.7733V20.2751C69.7733 20.5834 70.0233 20.8333 70.3316 20.8333C70.6399 20.8333 70.8898 20.5834 70.8898 20.2751V19.3446H71.8203C72.1286 19.3446 72.3785 19.0947 72.3785 18.7864C72.3785 18.4781 72.1286 18.2281 71.8203 18.2281Z" fill="#AC73F7" stroke="#AC73F7" stroke-width="0.4"/>
<path d="M79.2157 17.1886C79.1467 16.859 78.8199 16.6701 78.506 16.7636C78.1839 16.8685 78.0517 17.1878 78.1342 17.4596C78.2364 17.779 78.5567 17.915 78.8302 17.8317C79.119 17.7395 79.2674 17.4645 79.2157 17.1886Z" fill="#AC73F7" stroke="#AC73F7" stroke-width="0.4"/>
<path d="M80.157 18.2281C79.8486 18.2281 79.5987 18.4781 79.5987 18.7864V18.8236C79.5987 19.1319 79.8486 19.3819 80.157 19.3819C80.4653 19.3819 80.7152 19.1319 80.7152 18.8236V18.7864C80.7152 18.4781 80.4653 18.2281 80.157 18.2281Z" fill="#AC73F7" stroke="#AC73F7" stroke-width="0.4"/>
<path d="M77.1796 18.2281C76.8712 18.2281 76.6213 18.4781 76.6213 18.7864V18.8236C76.6213 19.1319 76.8712 19.3819 77.1796 19.3819C77.4879 19.3819 77.7378 19.1319 77.7378 18.8236V18.7864C77.7378 18.4781 77.4879 18.2281 77.1796 18.2281Z" fill="#AC73F7" stroke="#AC73F7" stroke-width="0.4"/>
<path d="M79.2157 20.166C79.1467 19.8364 78.8199 19.6475 78.506 19.741C78.1853 19.8455 78.0521 20.161 78.1342 20.4374C78.2408 20.7635 78.5619 20.8909 78.8302 20.8092C79.118 20.7173 79.2676 20.4429 79.2157 20.166V20.166Z" fill="#AC73F7" stroke="#AC73F7" stroke-width="0.4"/>
<path d="M73.0525 11.9796C72.8345 12.1977 72.8345 12.5511 73.0525 12.7691C73.2705 12.9871 73.624 12.9871 73.842 12.7691C74.2056 12.4055 74.7941 12.4054 75.1578 12.7691C75.3758 12.9872 75.7293 12.9872 75.9473 12.7691C76.1653 12.5511 76.1653 12.1977 75.9473 11.9796C75.1492 11.1815 73.8506 11.1815 73.0525 11.9796V11.9796Z" fill="#AC73F7" stroke="#AC73F7" stroke-width="0.4"/>
<path d="M72.1577 11.0849C73.4522 9.79041 75.5475 9.79019 76.8421 11.0849C77.0601 11.3029 77.4136 11.3029 77.6316 11.0849C77.8496 10.8669 77.8496 10.5134 77.6316 10.2954C75.9008 8.56458 73.0992 8.56435 71.3682 10.2954C71.1502 10.5134 71.1502 10.8669 71.3682 11.0849C71.5862 11.3029 71.9397 11.3029 72.1577 11.0849Z" fill="#AC73F7" stroke="#AC73F7" stroke-width="0.4"/>
</svg>
