<svg width="80" height="80" viewBox="0 0 80 80" fill="none" xmlns="http://www.w3.org/2000/svg">
<path d="M72 0H8C3.58172 0 0 3.58172 0 8V72C0 76.4183 3.58172 80 8 80H72C76.4183 80 80 76.4183 80 72V8C80 3.58172 76.4183 0 72 0Z" fill="url(#paint0_linear)"/>
<path d="M62.0847 50.2838L60.2564 40.3936C59.6688 35.8729 55.7782 32.469 51.1911 32.469H28.8084C24.2212 32.469 20.3309 35.8729 19.7431 40.3938L17.9148 50.2838C17.0058 55.2014 20.7335 59.7937 25.7337 59.9933C30.4982 60.1829 34.326 56.3149 34.341 51.6993C34.341 51.6828 33.8035 51.6886 45.6587 51.6886C45.6587 56.2881 49.4868 60.184 54.266 59.9933C59.2435 59.7944 62.9984 55.2248 62.0847 50.2838ZM57.1827 56.3798C55.0365 57.8827 52.0622 57.755 50.0538 55.8364C48.9202 54.7536 48.2704 53.236 48.2704 51.6725C48.2704 50.2773 47.1137 49.0914 45.6585 49.0914H34.341C32.886 49.0914 31.7293 50.2771 31.7293 51.6725C31.7293 54.8403 29.1129 57.5285 25.8383 57.3982C22.8444 57.2786 20.4788 54.842 20.3847 51.9128C20.3611 51.1796 20.3349 51.5567 22.3183 40.8279C22.323 40.8035 22.3267 40.779 22.3298 40.7542C22.7372 37.5115 25.5225 35.0662 28.8084 35.0662H51.1911C54.4767 35.0662 57.262 37.5115 57.6695 40.7542C57.6767 40.8114 57.5474 40.1054 59.516 50.7537C59.9329 53.0057 58.9165 55.1655 57.1827 56.3798Z" fill="white" stroke="white" stroke-width="0.4"/>
<path d="M33.7317 41.4727H31.555V39.3085C31.555 38.5913 30.9705 38.0098 30.2493 38.0098C29.5281 38.0098 28.9433 38.5913 28.9433 39.3085V41.4727H26.767C26.0458 41.4727 25.461 42.0543 25.461 42.7714C25.461 43.4886 26.0458 44.0699 26.767 44.0699H28.9433V46.2344C28.9433 46.9516 29.5281 47.5329 30.2493 47.5329C30.9705 47.5329 31.555 46.9516 31.555 46.2344V44.0699H33.7317C34.4528 44.0699 35.0374 43.4886 35.0374 42.7714C35.0374 42.0543 34.4528 41.4727 33.7317 41.4727Z" fill="white" stroke="white" stroke-width="0.4"/>
<path d="M51.0309 39.0547C50.8695 38.288 50.105 37.8485 49.3707 38.066C48.6173 38.31 48.3081 39.0528 48.501 39.6851C48.7401 40.428 49.4893 40.7444 50.1291 40.5506C50.8047 40.3361 51.1518 39.6964 51.0309 39.0547Z" fill="white" stroke="white" stroke-width="0.4"/>
<path d="M53.2327 41.4727C52.5113 41.4727 51.9268 42.0543 51.9268 42.7714V42.858C51.9268 43.5751 52.5113 44.1567 53.2327 44.1567C53.9539 44.1567 54.5385 43.5751 54.5385 42.858V42.7714C54.5385 42.0543 53.9539 41.4727 53.2327 41.4727Z" fill="white" stroke="white" stroke-width="0.4"/>
<path d="M46.2681 41.4727C45.5467 41.4727 44.9621 42.0543 44.9621 42.7714V42.858C44.9621 43.5751 45.5467 44.1567 46.2681 44.1567C46.9892 44.1567 47.5738 43.5751 47.5738 42.858V42.7714C47.5738 42.0543 46.9892 41.4727 46.2681 41.4727Z" fill="white" stroke="white" stroke-width="0.4"/>
<path d="M51.0309 45.9806C50.8695 45.2139 50.105 44.7745 49.3708 44.992C48.6206 45.2351 48.309 45.969 48.5011 46.6119C48.7504 47.3705 49.5015 47.6669 50.1291 47.4768C50.8024 47.263 51.1523 46.6247 51.0309 45.9806Z" fill="white" stroke="white" stroke-width="0.4"/>
<path d="M36.614 26.9376C36.1041 27.4449 36.1041 28.267 36.614 28.7741C37.1239 29.2812 37.9509 29.2812 38.4608 28.7741C39.3113 27.9283 40.6879 27.9281 41.5387 28.7741C42.0486 29.2815 42.8755 29.2815 43.3855 28.7741C43.8954 28.267 43.8954 27.4449 43.3855 26.9376C41.5186 25.0811 38.4809 25.0811 36.614 26.9376Z" fill="white" stroke="white" stroke-width="0.4"/>
<path d="M34.5209 24.8564C37.549 21.8451 42.4503 21.8446 45.4786 24.8564C45.9885 25.3635 46.8154 25.3635 47.3254 24.8564C47.8353 24.3493 47.8353 23.527 47.3254 23.0198C43.2767 18.9937 36.7232 18.9931 32.6741 23.0198C32.1642 23.527 32.1642 24.3493 32.6741 24.8564C33.1841 25.3635 34.011 25.3635 34.5209 24.8564Z" fill="white" stroke="white" stroke-width="0.4"/>
<defs>
<linearGradient id="paint0_linear" x1="80" y1="0" x2="0" y2="80" gradientUnits="userSpaceOnUse">
<stop stop-color="#E687FE"/>
<stop offset="1" stop-color="#8253C0" stop-opacity="0.82"/>
</linearGradient>
</defs>
</svg>
