<svg width="36" height="36" viewBox="0 0 36 36" fill="none" xmlns="http://www.w3.org/2000/svg">
<path d="M27.9381 22.6277L27.1154 18.1771C26.8509 16.1428 25.1002 14.6111 23.036 14.6111H12.9638C10.8996 14.6111 9.14892 16.1428 8.88439 18.1772L8.06165 22.6277C7.6526 24.8406 9.33007 26.9072 11.5802 26.997C13.7242 27.0823 15.4467 25.3417 15.4535 23.2647C15.4535 23.2572 15.2116 23.2599 20.5464 23.2599C20.5464 25.3297 22.269 27.0828 24.4197 26.997C26.6596 26.9075 28.3493 24.8512 27.9381 22.6277ZM25.7322 25.3709C24.7664 26.0472 23.428 25.9898 22.5242 25.1264C22.0141 24.6391 21.7217 23.9562 21.7217 23.2526C21.7217 22.6248 21.2011 22.0911 20.5463 22.0911H15.4535C14.7987 22.0911 14.2782 22.6247 14.2782 23.2526C14.2782 24.6781 13.1008 25.8878 11.6272 25.8292C10.28 25.7754 9.21544 24.6789 9.17313 23.3608C9.1625 23.0308 9.15071 23.2005 10.0432 18.3726C10.0453 18.3616 10.047 18.3506 10.0484 18.3394C10.2318 16.8802 11.4851 15.7798 12.9638 15.7798H23.036C24.5145 15.7798 25.7679 16.8802 25.9513 18.3394C25.9545 18.3651 25.8963 18.0474 26.7822 22.8392C26.9698 23.8526 26.5124 24.8245 25.7322 25.3709Z" fill="#AC73F7" stroke="#AC73F7" stroke-width="0.4"/>
<path d="M15.1793 18.6627H14.1998V17.6888C14.1998 17.3661 13.9367 17.1044 13.6122 17.1044C13.2877 17.1044 13.0245 17.3661 13.0245 17.6888V18.6627H12.0451C11.7206 18.6627 11.4575 18.9244 11.4575 19.2471C11.4575 19.5699 11.7206 19.8315 12.0451 19.8315H13.0245V20.8055C13.0245 21.1282 13.2877 21.3898 13.6122 21.3898C13.9367 21.3898 14.1998 21.1282 14.1998 20.8055V19.8315H15.1793C15.5038 19.8315 15.7668 19.5699 15.7668 19.2471C15.7668 18.9244 15.5038 18.6627 15.1793 18.6627Z" fill="#AC73F7" stroke="#AC73F7" stroke-width="0.4"/>
<path d="M22.9639 17.5746C22.8913 17.2296 22.5473 17.0318 22.2168 17.1297C21.8778 17.2395 21.7386 17.5738 21.8255 17.8583C21.9331 18.1926 22.2702 18.335 22.5581 18.2478C22.8621 18.1513 23.0183 17.8634 22.9639 17.5746Z" fill="#AC73F7" stroke="#AC73F7" stroke-width="0.4"/>
<path d="M23.9547 18.6627C23.6301 18.6627 23.3671 18.9244 23.3671 19.2471V19.2861C23.3671 19.6088 23.6301 19.8705 23.9547 19.8705C24.2793 19.8705 24.5423 19.6088 24.5423 19.2861V19.2471C24.5423 18.9244 24.2793 18.6627 23.9547 18.6627Z" fill="#AC73F7" stroke="#AC73F7" stroke-width="0.4"/>
<path d="M20.8206 18.6627C20.496 18.6627 20.233 18.9244 20.233 19.2471V19.2861C20.233 19.6088 20.496 19.8705 20.8206 19.8705C21.1452 19.8705 21.4082 19.6088 21.4082 19.2861V19.2471C21.4082 18.9244 21.1452 18.6627 20.8206 18.6627Z" fill="#AC73F7" stroke="#AC73F7" stroke-width="0.4"/>
<path d="M22.9639 20.6913C22.8913 20.3463 22.5473 20.1485 22.2169 20.2464C21.8793 20.3558 21.7391 20.686 21.8255 20.9754C21.9377 21.3167 22.2757 21.4501 22.5581 21.3646C22.8611 21.2684 23.0185 20.9811 22.9639 20.6913Z" fill="#AC73F7" stroke="#AC73F7" stroke-width="0.4"/>
<path d="M16.4763 12.1219C16.2468 12.3502 16.2468 12.7202 16.4763 12.9484C16.7058 13.1765 17.0779 13.1765 17.3074 12.9484C17.6901 12.5677 18.3096 12.5676 18.6924 12.9484C18.9219 13.1767 19.294 13.1767 19.5235 12.9484C19.7529 12.7202 19.7529 12.3502 19.5235 12.1219C18.6834 11.2865 17.3164 11.2865 16.4763 12.1219Z" fill="#AC73F7" stroke="#AC73F7" stroke-width="0.4"/>
<path d="M15.5344 11.1854C16.897 9.83032 19.1026 9.83009 20.4654 11.1854C20.6948 11.4136 21.0669 11.4136 21.2964 11.1854C21.5259 10.9572 21.5259 10.5871 21.2964 10.3589C19.4745 8.54714 16.5255 8.5469 14.7034 10.3589C14.4739 10.5871 14.4739 10.9572 14.7034 11.1854C14.9328 11.4136 15.3049 11.4136 15.5344 11.1854Z" fill="#AC73F7" stroke="#AC73F7" stroke-width="0.4"/>
</svg>
